<svg xmlns="http://www.w3.org/2000/svg" width="32" height="32" viewBox="0 0 32 32">
  <g id="Ic_journal" transform="translate(-531 -899)">
    <g id="Group_370" data-name="Group 370" transform="translate(2)">
      <path id="noun-journal-3838800" d="M152.286,84.143a1.143,1.143,0,0,1,1.143,1.143v2.286a1.143,1.143,0,0,1-2.286,0V85.286A1.143,1.143,0,0,1,152.286,84.143Zm-1.143,10.286v2.286a1.143,1.143,0,0,0,2.286,0V94.429a1.143,1.143,0,0,0-2.286,0ZM172.857,75H154.444a3.371,3.371,0,0,0-3.3,3.429,1.143,1.143,0,0,0,2.286,0,1.086,1.086,0,0,1,1.016-1.143h18.413a1.086,1.086,0,0,1,1.016,1.143v25.143a1.086,1.086,0,0,1-1.016,1.143H154.444a1.086,1.086,0,0,1-1.016-1.143,1.143,1.143,0,0,0-2.286,0,3.371,3.371,0,0,0,3.3,3.429h18.413a3.371,3.371,0,0,0,3.3-3.429V78.429A3.371,3.371,0,0,0,172.857,75Zm-21.714,8h2.286a1.143,1.143,0,0,0,0-2.286h-2.286a1.143,1.143,0,0,0,0,2.286Zm0,9.143h2.286a1.143,1.143,0,0,0,0-2.286h-2.286a1.143,1.143,0,1,0,0,2.286Zm2.286,9.143a1.143,1.143,0,0,0,0-2.286h-2.286a1.143,1.143,0,1,0,0,2.286Zm12.571-16h4.571a1.143,1.143,0,1,0,0-2.286H166a1.143,1.143,0,1,0,0,2.286Zm-5.548,1.167a2.286,2.286,0,1,0-2.286-2.286A2.288,2.288,0,0,0,160.452,86.453ZM166,92.143h4.571a1.143,1.143,0,1,0,0-2.286H166a1.143,1.143,0,1,0,0,2.286Zm-5.548,1.167a2.286,2.286,0,1,0-2.286-2.286A2.288,2.288,0,0,0,160.452,93.31ZM166,99h4.571a1.143,1.143,0,0,0,0-2.286H166A1.143,1.143,0,1,0,166,99Zm-5.548,1.167a2.286,2.286,0,1,0-2.286-2.286A2.288,2.288,0,0,0,160.452,100.167Z" transform="translate(382 824)" fill="#061724"/>
      <rect id="Rectangle_158" data-name="Rectangle 158" width="32" height="32" transform="translate(529 899)" fill="none"/>
    </g>
  </g>
</svg>
