<svg xmlns="http://www.w3.org/2000/svg" width="32" height="32" viewBox="0 0 32 32">
  <g id="Ic_standard" transform="translate(-613 -900)">
    <g id="Group_372" data-name="Group 372">
      <g id="Group_362" data-name="Group 362" transform="translate(0 1)">
        <rect id="Rectangle_157" data-name="Rectangle 157" width="32" height="32" transform="translate(613 899)" fill="none"/>
      </g>
      <g id="Group_371" data-name="Group 371" transform="translate(-1.001 0)">
        <path id="Path_57" data-name="Path 57" d="M272.587,124.706a.478.478,0,0,1,.139.418l-.487,2.3a.718.718,0,0,0,1.079.766l2.054-1.149a.516.516,0,0,1,.453,0l2.054,1.149a.731.731,0,0,0,1.079-.766l-.487-2.3a.479.479,0,0,1,.139-.418l1.741-1.6a.726.726,0,0,0-.418-1.253l-2.333-.279c-.174-.035-.313-.1-.348-.279l-.975-2.159a.733.733,0,0,0-1.323,0l-.975,2.159a.553.553,0,0,1-.348.279l-2.333.279a.726.726,0,0,0-.418,1.253Z" transform="translate(354.419 787.496)" fill="#061724"/>
        <path id="Path_56" data-name="Path 56" d="M137.482,39.8l-5.221-9.533a3.293,3.293,0,0,0,1.583-1.651,3.485,3.485,0,0,0-.4-2.493,4.054,4.054,0,0,1-.337-.943,2.918,2.918,0,0,1,.337-.943,3.484,3.484,0,0,0,.4-2.493,3.374,3.374,0,0,0-1.853-1.819,2.551,2.551,0,0,1-.775-.539,3.6,3.6,0,0,1-.269-.943,3.572,3.572,0,0,0-1.145-2.29,3.568,3.568,0,0,0-2.526-.4,3.286,3.286,0,0,1-.977.034,3.15,3.15,0,0,1-.741-.573A3.65,3.65,0,0,0,123.2,14a3.489,3.489,0,0,0-2.324,1.213,4.438,4.438,0,0,1-.741.573,3.286,3.286,0,0,1-.977-.034,3.4,3.4,0,0,0-2.526.4,3.345,3.345,0,0,0-1.145,2.29,4.04,4.04,0,0,1-.27.943,3.331,3.331,0,0,1-.775.539,3.605,3.605,0,0,0-1.853,1.819,3.485,3.485,0,0,0,.4,2.493,4.053,4.053,0,0,1,.337.943,2.918,2.918,0,0,1-.337.943,3.484,3.484,0,0,0-.4,2.493,3.046,3.046,0,0,0,1.583,1.651L108.917,39.8a1.809,1.809,0,0,0,.067,1.886,1.776,1.776,0,0,0,1.684.808l3.133-.269,1.448,2.8a1.757,1.757,0,0,0,1.583.977h.034a1.788,1.788,0,0,0,1.583-.943l4.716-8.59,4.716,8.59a1.871,1.871,0,0,0,1.583.943h.034a1.757,1.757,0,0,0,1.583-.977l1.448-2.8,3.133.269a1.809,1.809,0,0,0,1.684-.808,1.686,1.686,0,0,0,.136-1.886ZM115.52,21.849A4.5,4.5,0,0,0,117,20.67a4.643,4.643,0,0,0,.674-1.785,3.6,3.6,0,0,1,.27-.943,3.305,3.305,0,0,1,.977.034,4.638,4.638,0,0,0,1.92-.067,4.2,4.2,0,0,0,1.55-1.044c.236-.2.64-.606.808-.606s.573.4.808.606a4.2,4.2,0,0,0,1.55,1.044,4.642,4.642,0,0,0,1.92.067,3.1,3.1,0,0,1,.943-.034,3.6,3.6,0,0,1,.27.943,5.179,5.179,0,0,0,.64,1.785,4.875,4.875,0,0,0,1.482,1.179,5.492,5.492,0,0,1,.809.539,5.678,5.678,0,0,1-.3.91,4.743,4.743,0,0,0-.539,1.886,4.384,4.384,0,0,0,.539,1.886,3.742,3.742,0,0,1,.337.876,3.615,3.615,0,0,1-.808.573,4.5,4.5,0,0,0-1.482,1.179,4.644,4.644,0,0,0-.674,1.785,3.6,3.6,0,0,1-.269.943,3.305,3.305,0,0,1-.977-.034,4.638,4.638,0,0,0-1.92.067,4.2,4.2,0,0,0-1.55,1.044c-.236.2-.64.606-.808.606s-.573-.4-.809-.606a4.2,4.2,0,0,0-1.55-1.044,3.257,3.257,0,0,0-.977-.135,8.241,8.241,0,0,0-.943.067,3.1,3.1,0,0,1-.943.034,3.6,3.6,0,0,1-.27-.943,5.179,5.179,0,0,0-.64-1.785,4.874,4.874,0,0,0-1.482-1.179,5.491,5.491,0,0,1-.808-.539,5.676,5.676,0,0,1,.3-.91,4.744,4.744,0,0,0,.539-1.886,4.385,4.385,0,0,0-.539-1.886,3.74,3.74,0,0,1-.337-.876,3.6,3.6,0,0,1,.808-.573ZM116.9,43.272l-1.449-2.762a1.137,1.137,0,0,0-1.011-.606h-.1l-3.1.27,4.345-7.815a3.051,3.051,0,0,0,1.044,1.853,3.594,3.594,0,0,0,2.526.4,3.305,3.305,0,0,1,.977-.034,3.149,3.149,0,0,1,.741.573,3.022,3.022,0,0,0,.337.3Zm15.124-3.335a1.089,1.089,0,0,0-1.078.606l-1.415,2.762-4.345-7.882c.1-.1.236-.2.337-.3a4.435,4.435,0,0,1,.741-.573,3.286,3.286,0,0,1,.977.034,3.4,3.4,0,0,0,2.526-.4,2.977,2.977,0,0,0,1.044-1.853l4.312,7.848Z" transform="translate(506.316 886)" fill="#061724"/>
      </g>
    </g>
  </g>
</svg>
