<svg width="45" height="45" viewBox="0 0 25 25" xmlns="http://www.w3.org/2000/svg">
        <style>
            .s1 {
                fill: #ffffff
            }
        </style>
      <path fill="#ffffff" xmlns="http://www.w3.org/2000/svg" fill-rule="evenodd" class="s0" d="m22.8 20.8q0.1 0.1 0.1 0.3q0.1 0.1 0.1 0.2q0 0.2-0.1 0.3q0 0.1-0.1 0.2q-0.1 0.1-0.3 0.1q-0.1 0.1-0.3 0.1q-0.1 0-0.2-0.1q-0.2 0-0.3-0.1q-0.1-0.1-0.1-0.2q-0.1-0.1-0.1-0.3q0-0.1 0.1-0.2q0-0.2 0.1-0.3q0.1-0.1 0.3-0.1q0.1 0 0.2-0.1q0.2 0.1 0.3 0.1q0.2 0 0.3 0.1zm-10.3-16.7q0.1-0.1 0.2-0.1q0.1 0 0.2 0q0.1 0 0.2 0q0.1 0 0.2 0.1l11.1 5.8q0.2 0.1 0.3 0.3q0.1 0.1 0.1 0.3q0 0.2-0.1 0.4q-0.1 0.2-0.3 0.2l-1.5 0.8v7.1q0 0.2-0.1 0.3q-0.1 0.2-0.2 0.3q-0.1 0.1-0.2 0.1q-0.1 0.1-0.3 0.1q-0.1 0-0.3-0.1q-0.1 0-0.2-0.1q-0.1-0.1-0.2-0.2q0-0.1 0-0.3l-0.1-0.1v-6.3l-1.4 0.8v5.1q0 0.1 0 0.2q-0.1 0.1-0.1 0.1q-0.1 0.1-0.1 0.2q-0.1 0-0.2 0q-1.6 0.8-3.2 1.1q-1.7 0.4-3.4 0.4q-1.7 0-3.4-0.4q-1.6-0.3-3.2-1.1q-0.1 0-0.2 0q0-0.1-0.1-0.1q0-0.1 0-0.2q-0.1-0.1-0.1-0.1v-0.1v-5.1l-4.5-2.4q-0.2 0-0.3-0.2q-0.1-0.2-0.1-0.3q0-0.2 0-0.4q0.1-0.1 0.3-0.2l0.1-0.1l11.1-5.8zm6 10.1l-5.2 2.8q-0.1 0-0.2 0q-0.1 0.1-0.2 0q-0.1 0-0.2 0q-0.1 0-0.2 0l-5.2-2.8v4l0.3 0.1q1.3 0.5 2.6 0.8q1.4 0.2 2.7 0.2q1.4 0 2.7-0.2q1.3-0.3 2.6-0.8l0.3-0.1v-4zm-5.6-8.7zm-9.6 5l9.6 5l6.9-3.6l-5.7-2.1q-0.1 0-0.2-0.1q-0.1-0.1-0.2-0.2q-0.1-0.1-0.1-0.2q0-0.2 0-0.3l0.1-0.1q0-0.1 0.1-0.2q0.1-0.1 0.2-0.2q0.2 0 0.3 0q0.1 0 0.2 0h0.1l6.9 2.5l1-0.5l-9.6-5z"/>

</svg>